<svg xmlns="http://www.w3.org/2000/svg" viewBox="0 0 500 500" width="500" height="500">
    <rect width="500" height="500" fill="white" />
    
    <!-- Map Pin (Blue: #023E5A) -->
    <path d="M 250 350 C 250 350 150 240 150 180 C 150 124.77 194.77 80 250 80 C 305.23 80 350 124.77 350 180 C 350 240 250 350 250 350 Z" fill="#023E5A" />
    
    <!-- White Circle Cutout -->
    <circle cx="250" cy="180" r="70" fill="white" />
    
    <!-- Red Cross (#E6303B) -->
    <path d="M 230 130 h 40 v 30 h 30 v 40 h -30 v 30 h -40 v -30 h -30 v -40 h 30 z" fill="#E6303B" />
    
    <!-- EKG Line (White) -->
    <path d="M 200 180 L 225 180 L 232 195 L 245 150 L 255 205 L 265 180 L 300 180" fill="none" stroke="white" stroke-width="5" stroke-linejoin="round" stroke-linecap="round" />
    
    <!-- Text "MedFind" -->
    <text x="250" y="420" font-family="'Inter', 'Montserrat', 'Segoe UI', sans-serif" font-size="65" font-weight="700" text-anchor="middle" letter-spacing="-1">
        <tspan fill="#E6303B">Med</tspan><tspan fill="#023E5A">Find</tspan>
    </text>
    
    <!-- Text "Salone" with flanking horizontal red lines -->
    <text x="250" y="465" font-family="'Inter', 'Montserrat', 'Segoe UI', sans-serif" font-size="34" font-weight="500" fill="#E6303B" text-anchor="middle" letter-spacing="1">Salone</text>
    
    <path d="M 100 453 L 180 453" stroke="#E6303B" stroke-width="3" stroke-linecap="round" />
    <path d="M 320 453 L 400 453" stroke="#E6303B" stroke-width="3" stroke-linecap="round" />
</svg>
